#!OML:ASF I:\Actors\actors\Patient Classification 2\Patient 1\Session 1\actor1.ASF
:FULLY-SPECIFIED
:DEGREES
79
root -0.63546 18.6947 5.56872 2.62331 -5.95358 -0.454668
lowerback 0.916873 1.75035 -1.97084
upperback -2.80961 2.28699 0.108063
thorax -3.48449 1.19567 1.12271
lowerneck -12.7319 -2.55381 -1.30617
upperneck 27.0362 -4.36735 3.56582
head 10.9249 -1.70596 0.937824
rclavicle -3.45699e-014 -1.09332e-014
rhumerus -48.9471 0.0046305 -86.7863
rradius 42.8594
rwrist 15.7138
rhand -12.2363 -29.4764
rfingers 7.12502
rthumb 13.8293 -58.9967
lclavicle -3.45699e-014 -1.09332e-014
lhumerus -43.4874 -3.0685 90.8511
lradius 38.3883
lwrist -0.619062
lhand -13.5325 -31.4082
lfingers 7.12502
lthumb 12.5798 -1.80696
rfemur 3.58074 11.986 13.7438
rtibia 6.36111e-015
rfoot -18.5928 -15.2262
rtoes -7.13426
lfemur -4.63963 -3.96767 -14.7279
ltibia 21.0557
lfoot -25.4095 17.7121
ltoes -52.6791
80
root -0.635548 18.6946 5.57116 2.60617 -5.95934 -0.425534
lowerback 0.894486 1.74337 -2.01138
upperback -2.77929 2.27735 0.108688
thorax -3.44183 1.19142 1.14775
lowerneck -12.7624 -2.53752 -1.25355
upperneck 27.0447 -4.33105 3.47376
head 10.9293 -1.69458 0.900044
rclavicle -1.86361e-016 -3.57812e-015
rhumerus -48.8888 0.0175966 -86.7574
rradius 42.8793
rwrist 15.9672
rhand -11.8024 -29.6665
rfingers 7.12502
rthumb 14.2474 -59.1578
lclavicle -1.86361e-016 -3.57812e-015
lhumerus -43.4747 -3.05902 90.8654
lradius 38.3905
lwrist -0.582848
lhand -13.51 -31.389
lfingers 7.12502
lthumb 12.6015 -1.7891
rfemur 3.60633 11.9919 13.7167
rtibia 2.22639e-014
rfoot -18.5898 -15.229
rtoes -7.30598
lfemur -4.61623 -3.88563 -14.7564
ltibia 21.0625
lfoot -25.3712 17.674
ltoes -52.7751
81
root -0.636372 18.6948 5.57201 2.6027 -5.95452 -0.432116
lowerback 0.888473 1.73999 -2.0302
upperback -2.77075 2.2728 0.117069
thorax -3.43057 1.18963 1.16744
lowerneck -12.7773 -2.53644 -1.20325
upperneck 27.058 -4.32426 3.40949
head 10.9342 -1.69372 0.868987
rclavicle -1.26228e-014 5.56597e-015
rhumerus -48.8532 0.00261804 -86.7076
rradius 42.9612
rwrist 16.4722
rhand -10.8893 -30.0762
rfingers 7.12502
rthumb 15.1271 -59.5034
lclavicle -1.26228e-014 5.56597e-015
lhumerus -43.4687 -3.02785 90.8721
lradius 38.3744
lwrist -0.610621
lhand -13.4831 -31.4161
lfingers 7.12502
lthumb 12.6275 -1.81776
rfemur 3.61213 11.9878 13.7287
rtibia -6.36111e-015
rfoot -18.5808 -15.2396
rtoes -7.34859
lfemur -4.61092 -3.84339 -14.7434
ltibia 21.0645
lfoot -25.342 17.6538
ltoes -52.8828
82
root -0.637268 18.6942 5.57252 2.60813 -5.95127 -0.438855
lowerback 0.899787 1.74688 -2.03265
upperback -2.7852 2.28154 0.116467
thorax -3.45232 1.19434 1.16715
lowerneck -12.7592 -2.5424 -1.1742
upperneck 27.0773 -4.33176 3.37762
head 10.9366 -1.69797 0.851805
rclavicle -3.23833e-014 1.11319e-014
rhumerus -48.8832 -0.0458946 -86.6747
rradius 43.0471
rwrist 16.7338
rhand -10.3473 -30.3781
rfingers 7.12502
rthumb 15.6491 -59.7651
lclavicle -3.23833e-014 1.11319e-014
lhumerus -43.4899 -3.02339 90.8868
lradius 38.3715
lwrist -0.637037
lhand -13.4732 -31.4456
lfingers 7.12502
lthumb 12.637 -1.84784
rfemur 3.60622 11.9844 13.7365
rtibia 9.54166e-015
rfoot -18.5749 -15.2322
rtoes -7.12402
lfemur -4.61877 -3.8721 -14.7344
ltibia 21.069
lfoot -25.3625 17.6512
ltoes -52.8628
83
root -0.63773 18.6935 5.57392 2.59766 -5.95194 -0.425816
lowerback 0.908714 1.75945 -2.04093
upperback -2.78329 2.29741 0.0994645
thorax -3.45561 1.20222 1.15337
lowerneck -12.7275 -2.54594 -1.16291
upperneck 27.0637 -4.34115 3.38575
head 10.9254 -1.7007 0.851946
rclavicle 6.58474e-015 -6.75868e-015
rhumerus -48.9131 -0.0813246 -86.682
rradius 43.0966
rwrist 16.6988
rhand -10.29 -30.4673
rfingers 7.12502
rthumb 15.7044 -59.8501
lclavicle 6.58474e-015 -6.75868e-015
lhumerus -43.5061 -3.09221 90.9045
lradius 38.3911
lwrist -0.590344
lhand -13.4444 -31.4219
lfingers 7.12502
lthumb 12.6648 -1.82585
rfemur 3.62318 11.9854 13.7248
rtibia 0
rfoot -18.5752 -15.235
rtoes -7.20604
lfemur -4.61104 -3.9137 -14.7523
ltibia 21.0805
lfoot -25.3878 17.6623
ltoes -52.8266
84
root -0.638158 18.6937 5.57449 2.5969 -5.95552 -0.445841
lowerback 0.91786 1.76716 -2.03158
upperback -2.77249 2.3079 0.100725
thorax -3.44964 1.20708 1.14892
lowerneck -12.7494 -2.55146 -1.18219
upperneck 27.0701 -4.35097 3.40862
head 10.9335 -1.70395 0.861943
rclavicle -1.50269e-014 4.17448e-015
rhumerus -48.9019 -0.070866 -86.695
rradius 43.114
rwrist 16.6725
rhand -10.3199 -30.4033
rfingers 7.12502
rthumb 15.6755 -59.7883
lclavicle -1.50269e-014 4.17448e-015
lhumerus -43.501 -3.147 90.9256
lradius 38.4118
lwrist -0.518869
lhand -13.4394 -31.4193
lfingers 7.12502
lthumb 12.6696 -1.8236
rfemur 3.63043 11.9901 13.7507
rtibia 1.11319e-014
rfoot -18.5622 -15.2514
rtoes -7.43493
lfemur -4.60794 -3.91181 -14.7305
ltibia 21.09
lfoot -25.4057 17.6487
ltoes -52.7867
85
root -0.638549 18.6942 5.57437 2.60547 -5.95154 -0.485297
lowerback 0.919502 1.77171 -2.00343
upperback -2.75986 2.31538 0.119572
thorax -3.43737 1.21014 1.15246
lowerneck -12.7835 -2.55913 -1.22506
upperneck 27.0884 -4.35774 3.42868
head 10.9489 -1.7082 0.875238
rclavicle -1.90461e-014 -1.43125e-014
rhumerus -48.8889 -0.076028 -86.6864
rradius 43.1486
rwrist 16.6394
rhand -10.4191 -30.3984
rfingers 7.12502
rthumb 15.58 -59.7909
lclavicle -1.90461e-014 -1.43125e-014
lhumerus -43.4748 -3.15782 90.9607
lradius 38.4149
lwrist -0.489895
lhand -13.4419 -31.4632
lfingers 7.12502
lthumb 12.6672 -1.8673
rfemur 3.63014 11.9874 13.7969
rtibia 9.54166e-015
rfoot -18.5972 -15.2321
rtoes -7.38155
lfemur -4.61739 -3.86631 -14.6806
ltibia 21.1023
lfoot -25.4029 17.5977
ltoes -52.7531
